<svg width="367" height="503" viewBox="0 0 367 503" fill="none" xmlns="http://www.w3.org/2000/svg">
<g clip-path="url(#clip0_7_2)">
<path d="M362.39 5.01999H5.00001V425.06V425.51L183.7 497.42L362.39 425.51V425.06V5.01999Z" fill="white"/>
<path d="M211.59 328.964C211.44 328.273 211.179 327.76 210.806 327.424C210.432 327.069 209.9 326.892 209.21 326.892C208.146 326.892 207.38 327.359 206.914 328.292C206.447 329.207 206.204 330.663 206.186 332.66C206.596 332.007 207.184 331.493 207.95 331.12C208.734 330.747 209.592 330.56 210.526 330.56C212.355 330.56 213.82 331.139 214.922 332.296C216.042 333.453 216.602 335.068 216.602 337.14C216.602 338.503 216.322 339.697 215.762 340.724C215.22 341.751 214.418 342.553 213.354 343.132C212.308 343.711 211.067 344 209.63 344C206.755 344 204.758 343.104 203.638 341.312C202.518 339.501 201.958 336.907 201.958 333.528C201.958 329.981 202.546 327.349 203.722 325.632C204.916 323.896 206.82 323.028 209.434 323.028C210.834 323.028 212.01 323.308 212.962 323.868C213.932 324.409 214.66 325.128 215.146 326.024C215.65 326.92 215.948 327.9 216.042 328.964H211.59ZM209.378 334.34C208.575 334.34 207.903 334.583 207.362 335.068C206.839 335.535 206.578 336.207 206.578 337.084C206.578 337.98 206.82 338.68 207.306 339.184C207.81 339.688 208.519 339.94 209.434 339.94C210.255 339.94 210.899 339.697 211.366 339.212C211.851 338.708 212.094 338.027 212.094 337.168C212.094 336.291 211.86 335.6 211.394 335.096C210.927 334.592 210.255 334.34 209.378 334.34Z" fill="black"/>
<path d="M185.318 340.052C185.952 339.548 186.242 339.315 186.186 339.352C188.015 337.84 189.452 336.599 190.498 335.628C191.562 334.657 192.458 333.64 193.186 332.576C193.914 331.512 194.278 330.476 194.278 329.468C194.278 328.703 194.1 328.105 193.746 327.676C193.391 327.247 192.859 327.032 192.15 327.032C191.44 327.032 190.88 327.303 190.47 327.844C190.078 328.367 189.882 329.113 189.882 330.084H185.262C185.299 328.497 185.635 327.172 186.27 326.108C186.923 325.044 187.772 324.26 188.818 323.756C189.882 323.252 191.058 323 192.346 323C194.567 323 196.238 323.569 197.358 324.708C198.496 325.847 199.066 327.331 199.066 329.16C199.066 331.157 198.384 333.015 197.022 334.732C195.659 336.431 193.923 338.092 191.814 339.716H199.374V343.608H185.318V340.052Z" fill="black"/>
<path d="M167.22 333.388C167.22 330.177 167.836 327.648 169.068 325.8C170.319 323.952 172.325 323.028 175.088 323.028C177.851 323.028 179.848 323.952 181.08 325.8C182.331 327.648 182.956 330.177 182.956 333.388C182.956 336.636 182.331 339.184 181.08 341.032C179.848 342.88 177.851 343.804 175.088 343.804C172.325 343.804 170.319 342.88 169.068 341.032C167.836 339.184 167.22 336.636 167.22 333.388ZM178.252 333.388C178.252 331.503 178.047 330.056 177.636 329.048C177.225 328.021 176.376 327.508 175.088 327.508C173.8 327.508 172.951 328.021 172.54 329.048C172.129 330.056 171.924 331.503 171.924 333.388C171.924 334.657 171.999 335.712 172.148 336.552C172.297 337.373 172.596 338.045 173.044 338.568C173.511 339.072 174.192 339.324 175.088 339.324C175.984 339.324 176.656 339.072 177.104 338.568C177.571 338.045 177.879 337.373 178.028 336.552C178.177 335.712 178.252 334.657 178.252 333.388Z" fill="black"/>
<path d="M151.056 340.052C151.691 339.548 151.98 339.315 151.924 339.352C153.753 337.84 155.191 336.599 156.236 335.628C157.3 334.657 158.196 333.64 158.924 332.576C159.652 331.512 160.016 330.476 160.016 329.468C160.016 328.703 159.839 328.105 159.484 327.676C159.129 327.247 158.597 327.032 157.888 327.032C157.179 327.032 156.619 327.303 156.208 327.844C155.816 328.367 155.62 329.113 155.62 330.084H151C151.037 328.497 151.373 327.172 152.008 326.108C152.661 325.044 153.511 324.26 154.556 323.756C155.62 323.252 156.796 323 158.084 323C160.305 323 161.976 323.569 163.096 324.708C164.235 325.847 164.804 327.331 164.804 329.16C164.804 331.157 164.123 333.015 162.76 334.732C161.397 336.431 159.661 338.092 157.552 339.716H165.112V343.608H151.056V340.052Z" fill="black"/>
<path d="M183.5 502.81L0 428.96V0H367V428.96L183.5 502.8V502.81ZM9.61 422.06L183.5 492.04L357.39 422.06V10.05H9.61V422.06Z" fill="url(#paint0_linear_7_2)"/>
<path d="M28.82 387.71V410.4V410.77L183.5 470.28L338.18 410.77V410.4V387.71L183.5 447.22L28.82 387.71Z" fill="#FC584E"/>
<path d="M28.82 355.53V378.22V378.58L183.5 438.09L338.18 378.58V378.22V355.53L183.5 415.03L28.82 355.53Z" fill="#FF7E6E"/>
<path d="M28.82 323.34V346.03V346.4L183.5 405.91L338.18 346.4V346.03V323.34L183.5 382.85L28.82 323.34Z" fill="#FFA090"/>
<path d="M79.07 127.08V130.47H77C75.56 130.56 74.14 130.12 73.01 129.21C72.05 128.36 71.63 126.96 71.63 125.01V118.28H69.47V114.96H71.62V111.12H75.57V114.96H79.04V118.28H75.57V125.01C75.51 125.57 75.67 126.13 76.01 126.58C76.44 126.93 76.98 127.09 77.53 127.03L79.07 127.08Z" fill="#B41D1B"/>
<path d="M96.34 123.46H84.97C84.93 124.59 85.33 125.68 86.08 126.52C86.78 127.17 87.7 127.51 88.65 127.48C89.47 127.51 90.27 127.28 90.94 126.81C91.54 126.37 91.95 125.72 92.1 124.99H96.27C95.86 127.18 94.4 129.02 92.36 129.91C91.26 130.41 90.06 130.66 88.85 130.64C87.45 130.67 86.06 130.34 84.81 129.68C83.65 129.05 82.7 128.09 82.07 126.93C80.76 124.26 80.76 121.13 82.07 118.46C82.69 117.29 83.64 116.33 84.81 115.7C86.05 115.05 87.44 114.72 88.85 114.74C90.25 114.71 91.63 115.04 92.87 115.7C93.99 116.31 94.91 117.22 95.53 118.32C96.18 119.48 96.51 120.78 96.49 122.11C96.47 122.57 96.42 123.02 96.33 123.46H96.34ZM91.54 118.85C90.81 118.21 89.87 117.86 88.9 117.89C87.91 117.85 86.95 118.2 86.21 118.85C85.43 119.61 85 120.65 85.01 121.73H92.53C92.66 120.66 92.28 119.6 91.51 118.85H91.54Z" fill="#B41D1B"/>
<path d="M111.24 116.38C112.59 117.49 113.49 119.07 113.75 120.8H109.58C109.44 120.04 109.03 119.36 108.43 118.88C107.78 118.39 106.98 118.14 106.16 118.17C105.16 118.15 104.2 118.58 103.55 119.33C102.15 121.38 102.15 124.08 103.55 126.13C104.21 126.88 105.16 127.31 106.16 127.29C106.98 127.32 107.78 127.07 108.43 126.57C109.03 126.09 109.44 125.41 109.58 124.65H113.75C113.49 126.38 112.59 127.96 111.24 129.07C109.82 130.18 108.05 130.76 106.24 130.69C104.84 130.72 103.45 130.39 102.2 129.73C101.04 129.1 100.09 128.14 99.46 126.98C98.15 124.31 98.15 121.18 99.46 118.51C100.08 117.34 101.03 116.38 102.2 115.75C103.44 115.1 104.83 114.77 106.24 114.79C108.04 114.72 109.81 115.28 111.24 116.38Z" fill="#B41D1B"/>
<path d="M130.06 116.5C131.2 117.89 131.77 119.66 131.65 121.45V130.47H127.77V121.9C127.83 120.85 127.49 119.82 126.81 119.02C126.13 118.32 125.18 117.95 124.21 117.99C123.2 117.95 122.21 118.35 121.52 119.09C120.81 119.97 120.47 121.09 120.56 122.22V130.45H116.61V109.76H120.56V118.07C120.95 117.05 121.66 116.19 122.59 115.62C123.57 115.02 124.71 114.71 125.86 114.74C127.45 114.69 128.99 115.33 130.07 116.51L130.06 116.5Z" fill="#B41D1B"/>
<path d="M141.37 115.58C142.33 115.01 143.44 114.71 144.56 114.72V118.95H143.42C140.53 118.95 139.08 120.3 139.08 122.99V130.46H135.14V114.95H139.08V117.91C139.63 116.95 140.42 116.15 141.38 115.58H141.37Z" fill="#B41D1B"/>
<path d="M161.19 123.46H149.87C149.83 124.59 150.23 125.68 150.99 126.52C151.69 127.17 152.61 127.52 153.56 127.48C154.37 127.51 155.17 127.28 155.84 126.81C156.44 126.37 156.86 125.72 157 124.99H161.17C160.97 126.04 160.52 127.03 159.85 127.87C159.16 128.74 158.28 129.43 157.27 129.88C154.85 130.93 152.08 130.84 149.73 129.64C148.56 129.01 147.61 128.06 146.98 126.89C145.67 124.22 145.67 121.09 146.98 118.42C147.6 117.25 148.56 116.29 149.73 115.66C150.97 115.01 152.35 114.68 153.76 114.7C155.16 114.67 156.54 115 157.78 115.66C158.9 116.26 159.82 117.17 160.44 118.28C161.09 119.44 161.42 120.74 161.4 122.07C161.38 122.54 161.3 123.01 161.19 123.46ZM156.39 118.85C155.67 118.2 154.72 117.86 153.75 117.89C152.76 117.85 151.8 118.2 151.06 118.85C150.29 119.61 149.86 120.65 149.86 121.73H157.39C157.51 120.66 157.13 119.6 156.36 118.85H156.39Z" fill="#B41D1B"/>
<path d="M170.87 126.52L174.79 114.99H178.99L173.23 130.5H168.43L162.67 114.99H166.9L170.89 126.52H170.87Z" fill="#B41D1B"/>
<path d="M181.39 108.96C182.43 108.15 183.89 108.15 184.93 108.96C185.78 109.76 185.82 111.1 185.02 111.95C184.99 111.98 184.96 112.01 184.93 112.04C183.89 112.85 182.43 112.85 181.39 112.04C180.54 111.24 180.5 109.9 181.3 109.05C181.33 109.02 181.36 108.99 181.39 108.96ZM185.12 114.96V130.47H181.17V114.96H185.12Z" fill="#B41D1B"/>
<path d="M203.15 123.46H191.78C191.74 124.59 192.14 125.68 192.9 126.52C193.6 127.17 194.52 127.51 195.47 127.48C196.28 127.51 197.08 127.28 197.75 126.81C198.35 126.37 198.77 125.72 198.91 124.99H203.09C202.88 126.04 202.43 127.03 201.76 127.87C201.08 128.74 200.19 129.43 199.18 129.88C196.76 130.93 193.99 130.84 191.64 129.64C190.48 129.01 189.52 128.06 188.89 126.89C187.58 124.22 187.58 121.09 188.89 118.42C189.51 117.25 190.47 116.29 191.64 115.66C192.88 115.01 194.26 114.68 195.67 114.7C197.07 114.67 198.45 115 199.69 115.66C200.81 116.26 201.73 117.17 202.35 118.28C203 119.44 203.33 120.74 203.31 122.07C203.31 122.54 203.25 123.01 203.15 123.46ZM198.34 118.85C197.61 118.21 196.66 117.86 195.69 117.89C194.71 117.86 193.75 118.2 193.01 118.85C192.23 119.61 191.8 120.65 191.8 121.73H199.33C199.45 120.67 199.08 119.6 198.32 118.85H198.34Z" fill="#B41D1B"/>
<path d="M228.28 114.96L224.11 130.47H219.75L216.42 119.19L213.01 130.47H208.64L204.5 114.96H208.49L211.01 126.94L214.45 114.96H218.63L222.1 126.94L224.65 114.96H228.3H228.28Z" fill="#B41D1B"/>
<path d="M244.69 123.46H233.32C233.28 124.58 233.68 125.68 234.43 126.52C235.13 127.17 236.05 127.51 237 127.48C237.82 127.51 238.62 127.28 239.29 126.81C239.89 126.37 240.3 125.72 240.45 124.99H244.62C244.21 127.18 242.75 129.02 240.71 129.91C239.61 130.41 238.41 130.66 237.2 130.64C235.8 130.67 234.41 130.34 233.16 129.68C232 129.05 231.05 128.09 230.42 126.93C229.11 124.26 229.11 121.13 230.42 118.46C231.04 117.29 231.99 116.33 233.16 115.7C234.4 115.05 235.79 114.72 237.2 114.74C238.6 114.71 239.98 115.04 241.22 115.7C242.34 116.31 243.26 117.22 243.88 118.32C244.53 119.48 244.86 120.78 244.84 122.11C244.82 122.57 244.77 123.02 244.68 123.46H244.69ZM239.88 118.85C239.16 118.2 238.21 117.86 237.24 117.89C236.25 117.85 235.29 118.2 234.55 118.85C233.78 119.61 233.34 120.65 233.35 121.73H240.87C241 120.66 240.62 119.6 239.85 118.85H239.88Z" fill="#B41D1B"/>
<path d="M253.86 115.58C254.82 115.01 255.93 114.71 257.05 114.72V118.95H255.91C253.02 118.95 251.57 120.3 251.57 122.99V130.46H247.63V114.95H251.57V117.91C252.12 116.95 252.91 116.14 253.87 115.58H253.86Z" fill="#B41D1B"/>
<path d="M262.51 126.35V130.47H258.26V126.35H262.51Z" fill="#B41D1B"/>
<path d="M277.11 116.38C278.46 117.49 279.36 119.07 279.62 120.8H275.45C275.31 120.04 274.9 119.36 274.3 118.88C273.65 118.39 272.85 118.14 272.03 118.17C271.03 118.15 270.07 118.58 269.42 119.33C268.01 121.38 268.01 124.08 269.42 126.13C270.08 126.88 271.03 127.31 272.03 127.29C272.85 127.32 273.65 127.07 274.3 126.57C274.9 126.09 275.31 125.41 275.45 124.65H279.62C279.36 126.38 278.46 127.96 277.11 129.07C275.69 130.18 273.92 130.76 272.11 130.69C270.71 130.72 269.32 130.39 268.07 129.73C266.91 129.1 265.96 128.14 265.33 126.98C264.02 124.31 264.02 121.18 265.33 118.51C265.95 117.34 266.9 116.38 268.07 115.75C269.31 115.1 270.7 114.77 272.11 114.79C273.91 114.72 275.68 115.28 277.11 116.38Z" fill="#B41D1B"/>
<path d="M293.66 115.71C294.85 116.33 295.84 117.29 296.49 118.47C297.87 121.12 297.87 124.29 296.49 126.94C295.83 128.11 294.84 129.06 293.66 129.69C291.1 130.98 288.07 130.98 285.51 129.69C284.31 129.07 283.31 128.11 282.63 126.94C281.25 124.29 281.25 121.12 282.63 118.47C283.3 117.29 284.3 116.33 285.51 115.71C288.08 114.44 291.09 114.44 293.66 115.71ZM286.78 119.33C285.27 121.32 285.27 124.07 286.78 126.06C288.32 127.61 290.83 127.61 292.38 126.06C293.9 124.08 293.9 121.32 292.38 119.33C290.83 117.79 288.33 117.79 286.78 119.33Z" fill="#B41D1B"/>
<path d="M153.06 32.35H173.35C173.35 43.56 164.27 52.64 153.06 52.64V32.35Z" fill="#B41D1B"/>
<path d="M193.64 32.35V52.63H173.35C173.35 41.43 182.44 32.35 193.64 32.35Z" fill="#FF7E6E"/>
<path d="M193.64 52.63H173.35V93.21H193.64V52.63Z" fill="#FC584E"/>
<path d="M213.93 32.35H193.64V52.64H213.93V32.35Z" fill="#FFA090"/>
<path d="M160.02 162.43V170.05H149.27V202.03H139.64V170.05H129V162.43H160.02Z" fill="black"/>
<path d="M193.03 164.42C196.07 166.16 198.47 168.56 200.23 171.64C201.99 174.72 202.86 178.2 202.86 182.08C202.86 185.96 201.97 189.45 200.2 192.55C198.43 195.65 196.02 198.07 192.98 199.8C189.94 201.54 186.57 202.4 182.87 202.4C179.17 202.4 175.8 201.53 172.76 199.8C169.72 198.06 167.31 195.65 165.54 192.55C163.77 189.45 162.88 185.96 162.88 182.08C162.88 178.2 163.77 174.72 165.54 171.64C167.31 168.56 169.72 166.15 172.76 164.42C175.8 162.68 179.17 161.82 182.87 161.82C186.57 161.82 189.99 162.69 193.03 164.42ZM175.39 173.77C173.54 175.81 172.62 178.58 172.62 182.09C172.62 185.6 173.54 188.33 175.39 190.38C177.24 192.43 179.73 193.46 182.87 193.46C186.01 193.46 188.45 192.43 190.32 190.38C192.19 188.33 193.12 185.56 193.12 182.09C193.12 178.62 192.2 175.86 190.35 173.8C188.5 171.75 186.01 170.72 182.87 170.72C179.73 170.72 177.24 171.74 175.39 173.77Z" fill="black"/>
<path d="M217.81 188.13V202.02H208.23V162.43H223.74C228.44 162.43 232.03 163.6 234.49 165.93C236.95 168.26 238.19 171.41 238.19 175.37C238.19 177.83 237.64 180.03 236.54 181.95C235.44 183.87 233.8 185.39 231.64 186.49C229.47 187.59 226.84 188.14 223.74 188.14H217.8L217.81 188.13ZM228.45 175.37C228.45 171.9 226.53 170.16 222.68 170.16H217.81V180.46H222.68C226.52 180.46 228.45 178.76 228.45 175.36V175.37Z" fill="black"/>
<path d="M272.914 292.272C271.259 292.272 269.786 291.989 268.494 291.422C267.202 290.855 266.182 290.085 265.434 289.11C264.686 288.113 264.267 287.002 264.176 285.778H269.922C269.99 286.435 270.296 286.968 270.84 287.376C271.384 287.784 272.053 287.988 272.846 287.988C273.571 287.988 274.127 287.852 274.512 287.58C274.92 287.285 275.124 286.911 275.124 286.458C275.124 285.914 274.841 285.517 274.274 285.268C273.707 284.996 272.789 284.701 271.52 284.384C270.16 284.067 269.027 283.738 268.12 283.398C267.213 283.035 266.431 282.48 265.774 281.732C265.117 280.961 264.788 279.93 264.788 278.638C264.788 277.55 265.083 276.564 265.672 275.68C266.284 274.773 267.168 274.059 268.324 273.538C269.503 273.017 270.897 272.756 272.506 272.756C274.886 272.756 276.756 273.345 278.116 274.524C279.499 275.703 280.292 277.267 280.496 279.216H275.124C275.033 278.559 274.739 278.037 274.24 277.652C273.764 277.267 273.129 277.074 272.336 277.074C271.656 277.074 271.135 277.21 270.772 277.482C270.409 277.731 270.228 278.083 270.228 278.536C270.228 279.08 270.511 279.488 271.078 279.76C271.667 280.032 272.574 280.304 273.798 280.576C275.203 280.939 276.348 281.301 277.232 281.664C278.116 282.004 278.887 282.571 279.544 283.364C280.224 284.135 280.575 285.177 280.598 286.492C280.598 287.603 280.281 288.6 279.646 289.484C279.034 290.345 278.139 291.025 276.96 291.524C275.804 292.023 274.455 292.272 272.914 292.272Z" fill="black"/>
<path d="M256.467 276.19C257.147 275.147 257.997 274.331 259.017 273.742C260.037 273.13 261.17 272.824 262.417 272.824V278.978H260.819C259.368 278.978 258.28 279.295 257.555 279.93C256.83 280.542 256.467 281.63 256.467 283.194V292H250.653V273.028H256.467V276.19Z" fill="black"/>
<path d="M247.586 282.208C247.586 282.752 247.552 283.319 247.484 283.908H234.326C234.416 285.087 234.79 285.993 235.448 286.628C236.128 287.24 236.955 287.546 237.93 287.546C239.38 287.546 240.389 286.934 240.956 285.71H247.144C246.826 286.957 246.248 288.079 245.41 289.076C244.594 290.073 243.562 290.855 242.316 291.422C241.069 291.989 239.675 292.272 238.134 292.272C236.275 292.272 234.62 291.875 233.17 291.082C231.719 290.289 230.586 289.155 229.77 287.682C228.954 286.209 228.546 284.486 228.546 282.514C228.546 280.542 228.942 278.819 229.736 277.346C230.552 275.873 231.685 274.739 233.136 273.946C234.586 273.153 236.252 272.756 238.134 272.756C239.97 272.756 241.602 273.141 243.03 273.912C244.458 274.683 245.568 275.782 246.362 277.21C247.178 278.638 247.586 280.304 247.586 282.208ZM241.636 280.678C241.636 279.681 241.296 278.887 240.616 278.298C239.936 277.709 239.086 277.414 238.066 277.414C237.091 277.414 236.264 277.697 235.584 278.264C234.926 278.831 234.518 279.635 234.36 280.678H241.636Z" fill="black"/>
<path d="M212.44 275.714C213.006 274.83 213.788 274.116 214.786 273.572C215.783 273.028 216.95 272.756 218.288 272.756C219.852 272.756 221.268 273.153 222.538 273.946C223.807 274.739 224.804 275.873 225.53 277.346C226.278 278.819 226.652 280.531 226.652 282.48C226.652 284.429 226.278 286.152 225.53 287.648C224.804 289.121 223.807 290.266 222.538 291.082C221.268 291.875 219.852 292.272 218.288 292.272C216.973 292.272 215.806 292 214.786 291.456C213.788 290.912 213.006 290.209 212.44 289.348V301.044H206.626V273.028H212.44V275.714ZM220.736 282.48C220.736 281.029 220.328 279.896 219.512 279.08C218.718 278.241 217.732 277.822 216.554 277.822C215.398 277.822 214.412 278.241 213.596 279.08C212.802 279.919 212.406 281.063 212.406 282.514C212.406 283.965 212.802 285.109 213.596 285.948C214.412 286.787 215.398 287.206 216.554 287.206C217.71 287.206 218.696 286.787 219.512 285.948C220.328 285.087 220.736 283.931 220.736 282.48Z" fill="black"/>
<path d="M193.613 292.272C191.754 292.272 190.077 291.875 188.581 291.082C187.108 290.289 185.94 289.155 185.079 287.682C184.24 286.209 183.821 284.486 183.821 282.514C183.821 280.565 184.252 278.853 185.113 277.38C185.974 275.884 187.153 274.739 188.649 273.946C190.145 273.153 191.822 272.756 193.681 272.756C195.54 272.756 197.217 273.153 198.713 273.946C200.209 274.739 201.388 275.884 202.249 277.38C203.11 278.853 203.541 280.565 203.541 282.514C203.541 284.463 203.099 286.186 202.215 287.682C201.354 289.155 200.164 290.289 198.645 291.082C197.149 291.875 195.472 292.272 193.613 292.272ZM193.613 287.24C194.724 287.24 195.664 286.832 196.435 286.016C197.228 285.2 197.625 284.033 197.625 282.514C197.625 280.995 197.24 279.828 196.469 279.012C195.721 278.196 194.792 277.788 193.681 277.788C192.548 277.788 191.607 278.196 190.859 279.012C190.111 279.805 189.737 280.973 189.737 282.514C189.737 284.033 190.1 285.2 190.825 286.016C191.573 286.832 192.502 287.24 193.613 287.24Z" fill="black"/>
<path d="M180.764 266.84V292H174.95V266.84H180.764Z" fill="black"/>
<path d="M171.883 282.208C171.883 282.752 171.849 283.319 171.781 283.908H158.623C158.713 285.087 159.087 285.993 159.745 286.628C160.425 287.24 161.252 287.546 162.227 287.546C163.677 287.546 164.686 286.934 165.253 285.71H171.441C171.123 286.957 170.545 288.079 169.707 289.076C168.891 290.073 167.859 290.855 166.613 291.422C165.366 291.989 163.972 292.272 162.431 292.272C160.572 292.272 158.917 291.875 157.467 291.082C156.016 290.289 154.883 289.155 154.067 287.682C153.251 286.209 152.843 284.486 152.843 282.514C152.843 280.542 153.239 278.819 154.033 277.346C154.849 275.873 155.982 274.739 157.433 273.946C158.883 273.153 160.549 272.756 162.431 272.756C164.267 272.756 165.899 273.141 167.327 273.912C168.755 274.683 169.865 275.782 170.659 277.21C171.475 278.638 171.883 280.304 171.883 282.208ZM165.933 280.678C165.933 279.681 165.593 278.887 164.913 278.298C164.233 277.709 163.383 277.414 162.363 277.414C161.388 277.414 160.561 277.697 159.881 278.264C159.223 278.831 158.815 279.635 158.657 280.678H165.933Z" fill="black"/>
<path d="M141.249 286.56L145.363 273.028H151.551L144.819 292H137.645L130.913 273.028H137.135L141.249 286.56Z" fill="black"/>
<path d="M129.648 282.208C129.648 282.752 129.614 283.319 129.546 283.908H116.388C116.479 285.087 116.853 285.993 117.51 286.628C118.19 287.24 119.018 287.546 119.992 287.546C121.443 287.546 122.452 286.934 123.018 285.71H129.206C128.889 286.957 128.311 288.079 127.472 289.076C126.656 290.073 125.625 290.855 124.378 291.422C123.132 291.989 121.738 292.272 120.196 292.272C118.338 292.272 116.683 291.875 115.232 291.082C113.782 290.289 112.648 289.155 111.832 287.682C111.016 286.209 110.608 284.486 110.608 282.514C110.608 280.542 111.005 278.819 111.798 277.346C112.614 275.873 113.748 274.739 115.198 273.946C116.649 273.153 118.315 272.756 120.196 272.756C122.032 272.756 123.664 273.141 125.092 273.912C126.52 274.683 127.631 275.782 128.424 277.21C129.24 278.638 129.648 280.304 129.648 282.208ZM123.698 280.678C123.698 279.681 123.358 278.887 122.678 278.298C121.998 277.709 121.148 277.414 120.128 277.414C119.154 277.414 118.326 277.697 117.646 278.264C116.989 278.831 116.581 279.635 116.422 280.678H123.698Z" fill="black"/>
<path d="M96.0031 268.132C98.5191 268.132 100.718 268.631 102.599 269.628C104.48 270.625 105.931 272.031 106.951 273.844C107.994 275.635 108.515 277.709 108.515 280.066C108.515 282.401 107.994 284.475 106.951 286.288C105.931 288.101 104.469 289.507 102.565 290.504C100.684 291.501 98.4965 292 96.0031 292H87.0611V268.132H96.0031ZM95.6291 286.968C97.8278 286.968 99.5391 286.367 100.763 285.166C101.987 283.965 102.599 282.265 102.599 280.066C102.599 277.867 101.987 276.156 100.763 274.932C99.5391 273.708 97.8278 273.096 95.6291 273.096H92.8751V286.968H95.6291Z" fill="black"/>
<path d="M260.867 242.208C260.867 242.752 260.833 243.319 260.765 243.908H247.607C247.698 245.087 248.072 245.993 248.729 246.628C249.409 247.24 250.236 247.546 251.211 247.546C252.662 247.546 253.67 246.934 254.237 245.71H260.425C260.108 246.957 259.53 248.079 258.691 249.076C257.875 250.073 256.844 250.855 255.597 251.422C254.35 251.989 252.956 252.272 251.415 252.272C249.556 252.272 247.902 251.875 246.451 251.082C245 250.289 243.867 249.155 243.051 247.682C242.235 246.209 241.827 244.486 241.827 242.514C241.827 240.542 242.224 238.819 243.017 237.346C243.833 235.873 244.966 234.739 246.417 233.946C247.868 233.153 249.534 232.756 251.415 232.756C253.251 232.756 254.883 233.141 256.311 233.912C257.739 234.683 258.85 235.782 259.643 237.21C260.459 238.638 260.867 240.304 260.867 242.208ZM254.917 240.678C254.917 239.681 254.577 238.887 253.897 238.298C253.217 237.709 252.367 237.414 251.347 237.414C250.372 237.414 249.545 237.697 248.865 238.264C248.208 238.831 247.8 239.635 247.641 240.678H254.917Z" fill="black"/>
<path d="M234.254 236.19C234.934 235.147 235.784 234.331 236.804 233.742C237.824 233.13 238.957 232.824 240.204 232.824V238.978H238.606C237.155 238.978 236.067 239.295 235.342 239.93C234.617 240.542 234.254 241.63 234.254 243.194V252H228.44V233.028H234.254V236.19Z" fill="black"/>
<path d="M204.208 242.48C204.208 240.531 204.571 238.819 205.296 237.346C206.044 235.873 207.053 234.739 208.322 233.946C209.591 233.153 211.008 232.756 212.572 232.756C213.909 232.756 215.077 233.028 216.074 233.572C217.094 234.116 217.876 234.83 218.42 235.714V233.028H224.234V252H218.42V249.314C217.853 250.198 217.06 250.912 216.04 251.456C215.043 252 213.875 252.272 212.538 252.272C210.997 252.272 209.591 251.875 208.322 251.082C207.053 250.266 206.044 249.121 205.296 247.648C204.571 246.152 204.208 244.429 204.208 242.48ZM218.42 242.514C218.42 241.063 218.012 239.919 217.196 239.08C216.403 238.241 215.428 237.822 214.272 237.822C213.116 237.822 212.13 238.241 211.314 239.08C210.521 239.896 210.124 241.029 210.124 242.48C210.124 243.931 210.521 245.087 211.314 245.948C212.13 246.787 213.116 247.206 214.272 247.206C215.428 247.206 216.403 246.787 217.196 245.948C218.012 245.109 218.42 243.965 218.42 242.514Z" fill="black"/>
<path d="M203.147 233.028L198.013 252H191.587L188.595 239.692L185.501 252H179.109L173.941 233.028H179.755L182.441 246.594L185.637 233.028H191.791L195.021 246.526L197.673 233.028H203.147Z" fill="black"/>
<path d="M172.674 247.07V252H169.716C167.608 252 165.965 251.49 164.786 250.47C163.608 249.427 163.018 247.739 163.018 245.404V237.856H160.706V233.028H163.018V228.404H168.832V233.028H172.64V237.856H168.832V245.472C168.832 246.039 168.968 246.447 169.24 246.696C169.512 246.945 169.966 247.07 170.6 247.07H172.674Z" fill="black"/>
<path d="M159.368 237.856H156.24V252H150.426V237.856H148.318V233.028H150.426V232.484C150.426 230.149 151.095 228.381 152.432 227.18C153.77 225.956 155.73 225.344 158.314 225.344C158.745 225.344 159.062 225.355 159.266 225.378V230.308C158.156 230.24 157.374 230.399 156.92 230.784C156.467 231.169 156.24 231.861 156.24 232.858V233.028H159.368V237.856Z" fill="black"/>
<path d="M136.836 252.272C134.977 252.272 133.3 251.875 131.804 251.082C130.33 250.289 129.163 249.155 128.302 247.682C127.463 246.209 127.044 244.486 127.044 242.514C127.044 240.565 127.474 238.853 128.336 237.38C129.197 235.884 130.376 234.739 131.872 233.946C133.368 233.153 135.045 232.756 136.904 232.756C138.762 232.756 140.44 233.153 141.936 233.946C143.432 234.739 144.61 235.884 145.472 237.38C146.333 238.853 146.764 240.565 146.764 242.514C146.764 244.463 146.322 246.186 145.438 247.682C144.576 249.155 143.386 250.289 141.868 251.082C140.372 251.875 138.694 252.272 136.836 252.272ZM136.836 247.24C137.946 247.24 138.887 246.832 139.658 246.016C140.451 245.2 140.848 244.033 140.848 242.514C140.848 240.995 140.462 239.828 139.692 239.012C138.944 238.196 138.014 237.788 136.904 237.788C135.77 237.788 134.83 238.196 134.082 239.012C133.334 239.805 132.96 240.973 132.96 242.514C132.96 244.033 133.322 245.2 134.048 246.016C134.796 246.832 135.725 247.24 136.836 247.24Z" fill="black"/>
<path d="M115.918 252.238C114.172 252.238 112.608 251.955 111.226 251.388C109.843 250.821 108.732 249.983 107.894 248.872C107.078 247.761 106.647 246.424 106.602 244.86H112.79C112.88 245.744 113.186 246.424 113.708 246.9C114.229 247.353 114.909 247.58 115.748 247.58C116.609 247.58 117.289 247.387 117.788 247.002C118.286 246.594 118.536 246.039 118.536 245.336C118.536 244.747 118.332 244.259 117.924 243.874C117.538 243.489 117.051 243.171 116.462 242.922C115.895 242.673 115.079 242.389 114.014 242.072C112.472 241.596 111.214 241.12 110.24 240.644C109.265 240.168 108.426 239.465 107.724 238.536C107.021 237.607 106.67 236.394 106.67 234.898C106.67 232.677 107.474 230.943 109.084 229.696C110.693 228.427 112.79 227.792 115.374 227.792C118.003 227.792 120.122 228.427 121.732 229.696C123.341 230.943 124.202 232.688 124.316 234.932H118.026C117.98 234.161 117.697 233.561 117.176 233.13C116.654 232.677 115.986 232.45 115.17 232.45C114.467 232.45 113.9 232.643 113.47 233.028C113.039 233.391 112.824 233.923 112.824 234.626C112.824 235.397 113.186 235.997 113.912 236.428C114.637 236.859 115.77 237.323 117.312 237.822C118.853 238.343 120.1 238.842 121.052 239.318C122.026 239.794 122.865 240.485 123.568 241.392C124.27 242.299 124.622 243.466 124.622 244.894C124.622 246.254 124.27 247.489 123.568 248.6C122.888 249.711 121.89 250.595 120.576 251.252C119.261 251.909 117.708 252.238 115.918 252.238Z" fill="black"/>
</g>
<defs>
<linearGradient id="paint0_linear_7_2" x1="183.5" y1="502.8" x2="183.5" y2="0" gradientUnits="userSpaceOnUse">
<stop stop-color="#B41D1B"/>
<stop offset="0.12" stop-color="#BD2522"/>
<stop offset="0.31" stop-color="#D73A34"/>
<stop offset="0.54" stop-color="#FC584E"/>
<stop offset="0.78" stop-color="#FF7E6E"/>
<stop offset="1" stop-color="#FFA090"/>
</linearGradient>
<clipPath id="clip0_7_2">
<rect width="367" height="502.81" fill="white"/>
</clipPath>
</defs>
</svg>
